<svg width="180" height="100" viewBox="0 0 180 100" fill="none" xmlns="http://www.w3.org/2000/svg">
<g clip-path="url(#clip0_554_630)">
<rect width="180" height="100" fill="#030718"/>
<path d="M45.8386 68.6677L20.5 24.9248L33.086 35.025L49.1741 62.8904L45.8386 68.6677Z" fill="#5E47FF"/>
<path d="M69.6241 42.1848L44.4109 86.0002L46.8648 70.0502L62.9529 42.1848L69.6241 42.1848Z" fill="#5E47FF"/>
<path d="M34.9431 35.104L85.4949 35.0316L70.4549 40.8813H38.2787L34.9431 35.104Z" fill="#5E47FF"/>
<path d="M45.8386 68.6677L20.5 24.9248L33.086 35.025L49.1741 62.8904L45.8386 68.6677Z" fill="#5E47FF"/>
<path d="M69.6241 42.1848L44.4109 86.0002L46.8648 70.0502L62.9529 42.1848L69.6241 42.1848Z" fill="#5E47FF"/>
<g filter="url(#filter0_f_554_630)">
<path d="M34.9431 35.104L85.4949 35.0316L70.4549 40.8813H38.2787L34.9431 35.104Z" fill="#5E47FF"/>
</g>
<path d="M50.0829 59.5891L59.6131 43.0823H40.5527L50.0829 59.5891Z" fill="#57E1FF"/>
<g filter="url(#filter1_f_554_630)">
<path d="M45.8386 68.6677L20.5 24.9248L33.086 35.025L49.1741 62.8904L45.8386 68.6677Z" fill="#5E47FF"/>
</g>
<g filter="url(#filter2_f_554_630)">
<path d="M69.6241 42.1848L44.4109 86.0002L46.8648 70.0502L62.9529 42.1848L69.6241 42.1848Z" fill="#5E47FF"/>
</g>
<path d="M34.9431 35.104L85.4949 35.0316L70.4549 40.8813H38.2787L34.9431 35.104Z" fill="#5E47FF"/>
<path d="M83.8665 53.0105H77.3833L74 68.5708H80.9835C86.0083 68.5708 87.4997 65.8045 87.5174 63.6218C87.5327 61.7199 86.4532 60.9419 85.4339 60.607L85.4672 60.4341C86.8963 60.1207 88.6303 58.9537 88.6497 56.5548C88.6684 54.2424 86.8792 53.0105 83.8665 53.0105ZM78.6033 65.3939L79.2883 62.3035H82.0455C83.0994 62.3035 83.724 62.7357 83.7168 63.6326C83.7093 64.5619 82.9999 65.3939 81.5096 65.3939H78.6033ZM79.974 59.1266L80.6152 56.1874H83.1595C84.2134 56.1874 84.7957 56.5872 84.7888 57.4409C84.7816 58.3269 84.1152 59.1266 82.5928 59.1266H79.974Z" fill="white"/>
<path d="M90.6724 53.0105L87.2891 68.5708H98.4374L99.1779 65.1994H92.0749L94.7177 53.0105H90.6724Z" fill="white"/>
<path d="M106.304 53.0105L98.6752 68.2466L98.6087 68.5708H102.452L103.947 65.3291H108.493L108.584 68.5708H112.267L112.334 68.2466L111.328 53.0105H106.304ZM105.464 62.0657L108.086 56.3927H108.256L108.402 62.0657H105.464Z" fill="white"/>
<path d="M119.986 53.0105H115.611L112.228 68.5708H117.614C124.396 68.5708 126.619 63.5137 126.654 59.1914C126.686 55.1825 124.053 53.0105 119.986 53.0105ZM116.928 65.2858L118.863 56.2955H119.832C121.706 56.2955 122.773 57.3328 122.757 59.3103C122.733 62.1954 121.282 65.2858 118.173 65.2858H116.928Z" fill="white"/>
<path d="M128.9 53.0105L125.517 68.5708H137.121L137.806 65.3939H130.163L130.837 62.3251H137.267L137.953 59.1482H131.533L132.175 56.1874H139.669L140.355 53.0105H128.9Z" fill="white"/>
<path d="M90.1056 35L89.3867 38.3282H93.794L91.1296 50.5603H95.1323L97.7968 38.3282H102.204L102.923 35H90.1056Z" fill="white"/>
<path d="M109.708 35H103.416L100.033 50.5603H103.95L105.277 44.4442H105.49L108.645 50.5603H112.616L112.682 50.2361L109.503 44.4658C113.381 44.1417 114.815 41.9049 114.837 39.1926C114.858 36.5128 112.88 35 109.708 35ZM105.896 41.5915L106.648 38.1769H109.15C110.363 38.1769 111.051 38.6632 111.044 39.6141C111.035 40.6082 110.325 41.5915 108.558 41.5915H105.896Z" fill="white"/>
<path d="M119.558 35L111.93 50.2361L111.863 50.5603H115.706L117.202 47.3186H121.747L121.838 50.5603H125.522L125.588 50.2361L124.583 35H119.558ZM118.718 44.0552L121.34 38.3822H121.511L121.657 44.0552H118.718Z" fill="white"/>
<path d="M133.241 35H128.866L125.482 50.5603H130.869C137.65 50.5603 139.874 45.5032 139.908 41.1809C139.941 37.172 137.308 35 133.241 35ZM130.182 47.2753L132.118 38.285H133.087C134.96 38.285 136.027 39.3223 136.011 41.2998C135.988 44.1849 134.536 47.2753 131.428 47.2753H130.182Z" fill="white"/>
<path d="M142.155 35L138.771 50.5603H150.375L151.061 47.3834H143.417L144.091 44.3146H150.521L151.207 41.1377H144.788L145.429 38.1769H152.924L153.609 35H142.155Z" fill="white"/>
</g>
<defs>
<filter id="filter0_f_554_630" x="14.9431" y="15.0315" width="90.5518" height="45.8499" filterUnits="userSpaceOnUse" color-interpolation-filters="sRGB">
<feFlood flood-opacity="0" result="BackgroundImageFix"/>
<feBlend mode="normal" in="SourceGraphic" in2="BackgroundImageFix" result="shape"/>
<feGaussianBlur stdDeviation="10" result="effect1_foregroundBlur_554_630"/>
</filter>
<filter id="filter1_f_554_630" x="0.5" y="4.9248" width="68.6742" height="83.7429" filterUnits="userSpaceOnUse" color-interpolation-filters="sRGB">
<feFlood flood-opacity="0" result="BackgroundImageFix"/>
<feBlend mode="normal" in="SourceGraphic" in2="BackgroundImageFix" result="shape"/>
<feGaussianBlur stdDeviation="10" result="effect1_foregroundBlur_554_630"/>
</filter>
<filter id="filter2_f_554_630" x="24.4109" y="22.1848" width="65.2131" height="83.8154" filterUnits="userSpaceOnUse" color-interpolation-filters="sRGB">
<feFlood flood-opacity="0" result="BackgroundImageFix"/>
<feBlend mode="normal" in="SourceGraphic" in2="BackgroundImageFix" result="shape"/>
<feGaussianBlur stdDeviation="10" result="effect1_foregroundBlur_554_630"/>
</filter>
<clipPath id="clip0_554_630">
<rect width="180" height="100" fill="white"/>
</clipPath>
</defs>
</svg>
